<mxfile host="app.diagrams.net" agent="Mozilla/5.0 (Windows NT 10.0; Win64; x64) AppleWebKit/537.36 (KHTML, like Gecko) Chrome/132.0.0.0 Safari/537.36" version="26.0.15">
  <diagram name="페이지-1" id="y1f6OL8jlVb0eQgByTJs">
    <mxGraphModel dx="1195" dy="643" grid="1" gridSize="10" guides="1" tooltips="1" connect="1" arrows="1" fold="1" page="1" pageScale="1" pageWidth="827" pageHeight="1169" math="0" shadow="0">
      <root>
        <mxCell id="0" />
        <mxCell id="1" parent="0" />
        <mxCell id="-mp_X4Dw1cYelQOD18NR-1" value="" style="ellipse;whiteSpace=wrap;html=1;fillColor=none;" vertex="1" parent="1">
          <mxGeometry x="289" y="140" width="250" height="250" as="geometry" />
        </mxCell>
        <mxCell id="-mp_X4Dw1cYelQOD18NR-2" value="s1" style="ellipse;whiteSpace=wrap;html=1;fillColor=#d5e8d4;strokeColor=#82b366;" vertex="1" parent="1">
          <mxGeometry x="500" y="330" width="30" height="30" as="geometry" />
        </mxCell>
        <mxCell id="-mp_X4Dw1cYelQOD18NR-3" value="s2" style="ellipse;whiteSpace=wrap;html=1;fillColor=#ffe6cc;strokeColor=#d79b00;" vertex="1" parent="1">
          <mxGeometry x="300" y="330" width="30" height="30" as="geometry" />
        </mxCell>
        <mxCell id="-mp_X4Dw1cYelQOD18NR-4" value="s3" style="ellipse;whiteSpace=wrap;html=1;fillColor=#f8cecc;strokeColor=#b85450;" vertex="1" parent="1">
          <mxGeometry x="300" y="170" width="30" height="30" as="geometry" />
        </mxCell>
        <mxCell id="-mp_X4Dw1cYelQOD18NR-5" value="s0" style="ellipse;whiteSpace=wrap;html=1;fillColor=#dae8fc;strokeColor=#6c8ebf;" vertex="1" parent="1">
          <mxGeometry x="500" y="170" width="30" height="30" as="geometry" />
        </mxCell>
        <mxCell id="-mp_X4Dw1cYelQOD18NR-6" value="s0=서버0&lt;div&gt;s1=서버1&lt;/div&gt;&lt;div&gt;s2=서버2&lt;/div&gt;&lt;div&gt;s3=서버3&lt;/div&gt;" style="text;html=1;align=center;verticalAlign=middle;whiteSpace=wrap;rounded=0;" vertex="1" parent="1">
          <mxGeometry x="550" y="100" width="60" height="30" as="geometry" />
        </mxCell>
      </root>
    </mxGraphModel>
  </diagram>
</mxfile>
